<svg width="50" height="50" viewBox="0 0 50 50" fill="none" xmlns="http://www.w3.org/2000/svg">
<g clip-path="url(#clip0)">
<path d="M35.5176 14.7266V-0.0292969H15.1562V14.7266H6.42578L25.3418 31.0742L44.2578 14.7266H35.5176ZM9.05273 15.7031H15.1562H16.1328V14.7266V0.947266H34.5508V14.7266V15.7031H35.5273H41.6309L25.3418 29.7852L9.05273 15.7031Z" fill="#F3F1EA"/>
<path d="M29.2859 8.27234L20.7026 16.8556L21.3932 17.5461L29.9764 8.96286L29.2859 8.27234Z" fill="#F3F1EA"/>
<path d="M23.3984 10.9668C23.8281 10.5371 24.0625 9.98047 24.0625 9.375C24.0625 8.76953 23.8281 8.21289 23.3984 7.7832C22.9688 7.35352 22.4121 7.11914 21.8066 7.11914C21.2012 7.11914 20.6445 7.35352 20.2148 7.7832C19.7852 8.21289 19.5508 8.76953 19.5508 9.375C19.5508 9.98047 19.7852 10.5371 20.2148 10.9668C20.6445 11.3965 21.2012 11.6309 21.8066 11.6309C22.4121 11.6309 22.9688 11.3965 23.3984 10.9668ZM20.9082 10.2734C20.4102 9.77539 20.4102 8.96484 20.9082 8.4668C21.1523 8.22266 21.4844 8.0957 21.8066 8.0957C22.1289 8.0957 22.4609 8.22266 22.7051 8.4668C23.2031 8.96484 23.2031 9.77539 22.7051 10.2734C22.207 10.7715 21.4063 10.7715 20.9082 10.2734Z" fill="#F3F1EA"/>
<path d="M28.8672 14.1895C28.2617 14.1895 27.7051 14.4238 27.2754 14.8535C26.3965 15.7324 26.3965 17.1582 27.2754 18.0371C27.7051 18.4668 28.2617 18.7012 28.8672 18.7012C29.4727 18.7012 30.0391 18.4668 30.459 18.0371C30.8887 17.6074 31.1231 17.0508 31.1231 16.4453C31.1231 15.8398 30.8887 15.2734 30.459 14.8535C30.0391 14.4238 29.4727 14.1895 28.8672 14.1895ZM29.7656 17.3438C29.5215 17.5879 29.209 17.7148 28.8672 17.7148C28.5254 17.7148 28.2031 17.5781 27.9688 17.3438C27.4707 16.8457 27.4707 16.0352 27.9688 15.5371C28.2129 15.293 28.5254 15.166 28.8672 15.166C29.209 15.166 29.5313 15.3027 29.7656 15.5371C30.0098 15.7813 30.1367 16.0938 30.1367 16.4355C30.1465 16.7773 30.0098 17.0996 29.7656 17.3438Z" fill="#F3F1EA"/>
<path d="M49.4629 31.4649C49.3945 30.5078 48.9551 29.6289 48.2324 29.0039C47.5098 28.3692 46.5723 28.0664 45.6152 28.1348C45.0879 28.1739 44.5898 28.3203 44.1406 28.5742C42.1387 27.2657 39.502 27.6172 37.9102 29.4239L32.5293 34.8828C32.2168 34.5801 31.8555 34.3262 31.4551 34.1309C27.4512 32.2168 19.3164 29.0235 9.86328 29.1895C5.9668 29.2383 0.0390625 34.1309 -0.205078 34.3457L0.419922 35.0977C0.478516 35.0489 6.32812 30.2149 9.87305 30.1563C19.1211 30 27.0996 33.125 31.0254 35.0098C32.373 35.6543 33.0469 37.1582 32.627 38.5938C32.4023 39.375 31.8848 40.0196 31.1719 40.4102C30.459 40.8008 29.6387 40.8887 28.8574 40.6543L21.3281 38.4375L21.0547 39.375L28.584 41.5918C28.9551 41.6992 29.3457 41.7578 29.7266 41.7578C30.3906 41.7578 31.0449 41.5918 31.6406 41.2696C32.5781 40.752 33.2715 39.9024 33.5645 38.877C33.6133 38.7012 33.6523 38.5254 33.6816 38.3594L37.168 37.8418L43.8965 30.0293C44.3555 29.502 44.9902 29.1797 45.6934 29.1309C46.3965 29.0821 47.0703 29.3067 47.5977 29.7656C48.125 30.2246 48.4473 30.8594 48.4961 31.5625C48.5449 32.2559 48.3203 32.9395 47.8613 33.4668L41.1914 41.1231L29.7461 46.7774C27.1289 48.0762 24.082 48.1543 21.3965 47.0117L10.957 42.5489H0.0292969V43.5254H10.752L21.0059 47.9102C22.3828 48.4961 23.8477 48.7891 25.3125 48.7891C26.9727 48.7891 28.6426 48.4082 30.166 47.6563L41.7871 41.9141L48.584 34.1114C49.2188 33.3496 49.5312 32.4219 49.4629 31.4649ZM36.6602 36.9043L33.7109 37.3438C33.6523 36.7383 33.457 36.1524 33.1445 35.6348L38.623 30.0879L38.6426 30.0684C39.834 28.711 41.7578 28.3789 43.3105 29.1992C43.2617 29.2481 43.2031 29.3067 43.1543 29.3653L36.6602 36.9043Z" fill="#F3F1EA"/>
</g>
<defs>
<clipPath id="clip0">
<rect width="50" height="50" fill="white"/>
</clipPath>
</defs>
</svg>
