<svg width="152" height="71" viewBox="0 0 152 71" fill="none" xmlns="http://www.w3.org/2000/svg">
<path d="M37.7203 58.472C37.4937 56.3452 37.0858 54.395 36.4363 52.2067C37.0556 51.0012 37.6976 49.957 38.2566 49.1892C38.6796 49.5347 39.1479 49.7113 39.6615 49.7113C40.5225 49.7113 41.5045 49.2199 42.5997 48.2371C44.3294 46.6861 44.4276 43.6686 44.4276 43.0006C44.4276 42.9315 44.4276 42.8854 44.4276 42.8701L44.42 42.609H44.1556C44.0121 42.609 40.5376 42.6244 38.8306 44.2214C37.7883 45.2042 37.2444 46.1717 37.2142 47.1007C37.1991 47.6689 37.3729 48.191 37.743 48.6748C37.2444 49.3428 36.6855 50.2257 36.1266 51.2469C35.8849 50.4791 35.613 49.6806 35.3108 48.836C35.5752 48.1987 35.8547 47.5921 36.1568 47.0163C37.9016 43.6763 40.3941 41.4036 43.997 39.9217C44.7977 42.156 46.6104 43.6456 49.1785 43.6456C52.7134 43.6456 55.0776 40.8738 55.0776 36.812C55.0776 32.8962 52.8116 30.2472 49.4127 30.2472C45.7494 30.2472 43.5287 32.9653 43.5287 37.0654C43.5287 37.8947 43.6345 38.6778 43.8309 39.3996C39.4047 41.1963 36.8139 44.0525 35.0389 48.0835C34.8878 47.6689 34.7368 47.2389 34.5706 46.7936C35.0389 46.617 35.4166 46.3252 35.7111 45.926C36.3758 45.0123 36.5269 43.5842 36.1266 41.8873C36.0359 41.5187 35.9453 41.1886 35.8471 40.8968C36.4514 41.1118 37.1463 41.0734 37.7127 40.774C37.2822 40.7893 36.8592 40.6434 36.5193 40.3824C37.5013 40.1674 38.4228 39.699 39.1781 39.0233C38.5587 39.2767 37.8789 39.3612 37.2142 39.2844C37.7279 39.0924 38.1357 38.6778 38.5134 38.2709C39.4198 37.2881 40.2657 36.2285 40.8473 35.0154C40.2733 35.5144 39.6917 35.9982 39.095 36.4665C38.4907 36.9502 37.8563 37.4263 37.116 37.6413C37.0481 36.6738 37.5088 36.4205 37.9318 36.2976C38.03 36.2899 38.1357 36.2899 38.2339 36.2899C38.2113 36.2746 38.1886 36.2515 38.1735 36.2362C37.7883 35.883 37.3426 35.5912 36.8592 35.3839C38.5512 35.5298 40.2808 35.023 41.6404 33.9865C40.447 33.879 39.246 33.879 38.0526 33.9711C38.7098 33.449 39.4575 33.0421 40.0769 32.4585C40.6887 31.8827 41.1721 31.0611 41.0588 30.2165C40.024 31.399 38.5738 32.1975 37.0405 32.4509C37.7354 31.9441 38.1206 31.0381 38.0073 30.1858C37.4559 30.6311 36.8366 30.9843 36.187 31.2377C37.0858 30.4238 37.6523 29.226 37.7052 28.0052C36.9197 29.0955 35.9075 30.0092 34.7594 30.6926C35.054 29.5178 35.3637 28.5504 35.6809 27.8209C35.8169 27.8517 35.9528 27.867 36.0888 27.867C36.3607 27.867 36.6175 27.8056 36.8517 27.6751C37.4484 27.3526 37.9016 26.6385 38.1357 25.648C38.4605 25.84 38.808 25.9782 39.1705 26.0627C38.8231 25.84 38.536 25.5329 38.3321 25.1797C38.6116 25.3639 38.959 25.4177 39.2914 25.4638C40.092 25.5559 40.9078 25.5943 41.7084 25.4484C41.2628 25.3409 40.8171 25.2257 40.3715 25.1029C39.9183 24.9724 39.4575 24.8342 39.0874 24.5424C39.6162 24.0817 40.0996 23.5596 40.5301 22.9991C39.8654 23.3292 39.1176 23.4905 38.3774 23.4751C38.3774 23.4751 38.3623 23.3139 38.3472 23.0989C38.4152 22.9991 38.4756 22.8993 38.5285 22.8148C38.4681 22.8378 38.4076 22.8532 38.3472 22.8839L38.3321 22.8916C38.3095 22.5845 38.2943 22.2543 38.3095 22.1391C38.1282 22.3848 37.8789 22.5845 37.5994 22.6996C37.5239 22.7303 37.4182 22.7534 37.3653 22.692C37.3351 22.6612 37.2671 22.1007 37.2596 21.8627C37.1765 22.2082 36.7761 22.738 36.5722 22.9684C36.3532 22.715 36.187 22.4923 36.1568 22.4155C36.1492 22.4155 36.1341 22.4232 36.1039 22.4232C35.9982 22.1698 35.9075 21.8934 35.9151 21.6938C35.8698 21.9625 35.7942 22.2697 35.6281 22.4693C35.2882 22.5 34.8501 22.5384 34.5026 22.5614C34.3742 22.5307 34.2685 22.5 34.2156 22.477C34.2458 22.5077 34.2685 22.5461 34.2987 22.5768C34.2156 22.5845 34.1401 22.5921 34.0797 22.5921C34.0041 22.6075 33.9437 22.6152 33.9059 22.6075C33.9059 22.6075 33.9286 22.6075 33.9664 22.5998C33.8531 22.6075 33.7398 22.6152 33.6265 22.6152C33.1053 22.6152 32.5841 22.5307 32.0705 22.4463C31.2925 22.3234 30.4692 22.1622 29.8801 21.6324C29.9405 21.7936 32.0101 23.836 32.6219 23.6517C32.5615 24.1738 32.4784 24.6959 32.3802 25.2104C32.6823 24.8802 33.1657 24.7804 33.4603 24.4502C33.5056 24.7958 33.6265 25.1259 33.8077 25.4177C33.9135 25.1797 34.0192 24.9416 34.125 24.7113C34.2005 24.5424 34.2383 24.3504 34.3591 24.2199C34.4951 24.0817 34.6537 23.9665 34.8425 23.8744C34.8652 23.8744 34.8878 23.8744 34.9105 23.8744C34.8727 23.9435 34.8274 24.0126 34.7821 24.0894C34.2458 25.0568 34.0797 25.9705 34.3138 26.6692C34.4422 27.0378 34.6839 27.3372 35.0163 27.5522C34.7745 28.1204 34.5328 28.8191 34.2987 29.6407C34.3365 28.8114 34.4195 27.9822 34.057 27.2604C33.5585 28.3354 32.282 30.6772 32.1536 30.6772C32.0856 30.6772 31.0508 30.0706 30.5901 29.8096C30.9451 30.7617 30.4466 31.0458 30.0916 31.23C29.4344 31.5602 28.1353 31.2991 27.7727 28.7193C27.6292 28.7116 27.312 30.4545 27.0929 31.7829C26.7077 30.8001 26.3074 29.7021 26.0355 28.9266C27.4102 27.8747 27.599 26.1625 26.5869 23.8206C25.4237 21.1179 21.2694 20.2119 21.0957 20.1735L20.8766 20.1275L20.7935 20.3424C20.7256 20.5114 19.2074 24.5347 20.3252 26.961C20.9673 28.3584 21.7981 29.2414 22.7876 29.5946C23.0973 29.7021 23.4145 29.7558 23.7393 29.7558C24.268 29.7558 24.8119 29.6099 25.3783 29.3259C25.4463 29.2951 25.5068 29.2568 25.5672 29.226C25.8693 30.0783 26.3905 31.4834 26.8437 32.6275C26.1261 31.9595 25.4086 31.2147 25.1971 30.2549C25.1366 31.2454 25.5068 32.2128 25.9448 33.1035C26.8588 34.9463 28.2561 36.7276 30.2275 37.219C28.9812 37.6566 27.5688 37.3879 26.4056 36.766C25.2424 36.1364 24.2831 35.1766 23.407 34.1708C23.6184 34.7697 23.8299 35.3762 24.1774 35.8983C24.5324 36.4205 25.046 36.8658 25.6578 36.981C24.8949 37.3265 23.9886 37.3572 23.203 37.0501C23.2483 37.0885 24.759 38.2939 25.469 38.2786C24.2 39.2153 22.8933 40.1827 21.36 40.5283C23.052 40.5206 24.759 40.5129 26.3905 40.0676C27.0098 39.8986 28.6715 39.6913 29.6157 39.2537C29.6081 39.269 29.593 39.2844 29.5855 39.2921C29.0417 39.9677 28.3165 40.4668 27.5386 40.8354C26.7606 41.2039 25.9373 41.4573 25.114 41.703C23.8753 42.0716 22.5459 42.4324 21.3072 42.0639C21.5111 42.2635 21.8057 42.3173 22.0776 42.3633C23.2786 42.5476 24.5248 42.6321 25.6805 42.2558C25.3632 43.1081 24.7212 43.8375 23.913 44.2445C24.9554 44.2368 25.9977 43.8145 26.7681 43.1004C27.0401 43.922 27.2818 44.7512 27.4857 45.5881C27.7047 44.8894 28.3543 44.3904 28.5583 43.684C28.8679 44.16 29.2758 44.567 29.7517 44.8741C29.7441 44.4441 29.7366 44.0218 29.729 43.5918C29.7214 43.2924 29.6459 42.9776 29.7441 42.6935C29.8952 42.2558 30.1746 41.8412 30.5296 41.4573C30.507 41.6262 30.4919 41.8028 30.4768 41.9948C30.3333 42.3787 30.1822 42.7012 30.0689 42.7703C30.2124 42.7626 30.3333 42.7165 30.439 42.6474C30.4239 43.277 30.4768 43.8606 30.5901 44.375C29.6006 46.379 29.1398 48.4905 29.1927 50.7402C28.732 50.4407 28.2712 50.149 27.8105 49.8802L27.0174 49.4119C27.1534 48.7439 27.3573 48.0912 27.6141 47.4463L27.8936 46.8243C27.9389 46.7168 27.9918 46.617 28.0446 46.5172L28.2032 46.2178L28.3694 45.9183C28.4223 45.8185 28.4903 45.7263 28.5507 45.6265L28.9208 45.043L28.4827 45.5728C28.4147 45.6649 28.3317 45.7494 28.2637 45.8415L28.0597 46.1256L27.8558 46.4097C27.7878 46.5018 27.7198 46.6017 27.6594 46.7015L27.2969 47.3004C26.9796 47.8762 26.7002 48.4828 26.4811 49.1124C26.2772 48.9896 26.0732 48.8667 25.8693 48.7515C24.6381 47.9991 23.5429 47.2236 22.7045 46.2101L22.5534 46.0181L22.4779 45.9183L22.4099 45.8185L22.2664 45.6189L22.1305 45.4115C22.0323 45.2733 21.9567 45.1274 21.8737 44.9816C21.7906 44.8357 21.715 44.6821 21.6395 44.5286C21.3449 43.9143 21.0957 43.254 20.9068 42.5553C20.718 41.8642 20.5669 41.1425 20.4612 40.4054C20.3555 39.6683 20.2875 38.9158 20.2497 38.1634C20.2346 37.7872 20.2119 37.4033 20.2119 37.027L20.2044 36.4588L20.2119 35.8907C20.2119 35.5068 20.2346 35.1305 20.2422 34.7466C20.2497 34.5547 20.2573 34.3627 20.2724 34.1708L20.2875 33.8867L20.295 33.7408V33.6717C20.295 33.6486 20.295 33.6256 20.2648 33.5949C20.2271 33.6103 20.2195 33.6333 20.2119 33.6563L20.1968 33.7254L20.1666 33.8636L20.1062 34.1477C20.0684 34.332 20.0231 34.524 19.9854 34.7082C19.9098 35.0845 19.8267 35.4607 19.7663 35.8369L19.6606 36.4051L19.5699 36.9733C19.5019 37.3572 19.4566 37.7411 19.4038 38.125C19.3056 38.8928 19.23 39.676 19.1998 40.4668C19.1696 41.2577 19.1772 42.0562 19.2527 42.8624C19.3358 43.6686 19.4793 44.4902 19.7285 45.2964C19.9778 46.1026 20.3479 46.8934 20.8162 47.6228C21.0579 47.9837 21.3072 48.3369 21.5942 48.6594C21.8737 48.9819 22.1682 49.2967 22.4779 49.5808C23.0897 50.1566 23.7469 50.648 24.3889 51.101C24.7061 51.3237 25.0309 51.5464 25.3481 51.7537L25.9071 52.1222C25.8995 52.3372 25.8995 52.5522 25.892 52.7672C25.8995 53.7346 26.0355 54.7098 26.2696 55.6465C26.398 56.1533 26.5491 56.6523 26.7304 57.1437C17.7496 53.7884 11.3445 45.1275 11.3445 35C11.3445 21.9702 21.9567 11.3667 35.0011 11.3667C45.5454 11.3667 54.5035 18.3001 57.5475 27.844H58.9675C57.7967 23.9128 55.6592 20.3041 52.6757 17.3173C47.9549 12.5952 41.6782 10 35.0011 10C28.3241 10 22.0474 12.6029 17.3266 17.3173C12.5983 22.0393 10 28.32 10 35C10 41.68 12.6059 47.9607 17.3266 52.6827C20.2119 55.5697 23.6789 57.6582 27.463 58.8483C28.3317 59.117 29.2154 59.3474 30.1142 59.5239C30.6429 59.6314 31.1792 59.7159 31.723 59.785C32.0025 59.8234 32.282 59.8541 32.569 59.8771C32.705 59.8925 32.8409 59.9002 32.9844 59.9155C33.6567 59.9693 34.3289 60 35.0087 60C35.5223 60 36.0284 59.9846 36.5344 59.9539C36.7913 59.9386 37.0481 59.9155 37.3124 59.8925C37.4937 59.8771 37.6674 59.8618 37.8487 59.8388C43.4532 59.2091 48.6347 56.7214 52.6832 52.6751C54.715 50.648 56.3541 48.3292 57.5626 45.8108H56.0368C52.4868 52.652 45.704 57.5584 37.7203 58.472ZM38.3548 48.5365C38.2792 48.4521 38.2113 48.3753 38.1508 48.2832L38.8759 46.9856L39.9334 46.9625L39.7597 47.976L38.4605 48.6364C38.4228 48.6057 38.385 48.5749 38.3548 48.5365ZM41.8141 48.1987C40.4395 49.289 39.5557 49.3044 38.959 49.0049L41.9954 47.4539L41.8141 48.1987ZM40.2959 45.9029C40.6132 45.4806 40.9833 45.0507 41.3081 44.6975L42.4335 44.4902L42.1465 45.8031L41.6782 46.0719L41.7311 45.8108L40.2959 45.9029ZM41.293 46.2024L41.0739 47.308L40.3564 47.6766L40.5679 46.4097L39.9334 46.4251C39.9636 46.379 39.9938 46.3329 40.024 46.2868L41.293 46.2024ZM42.5241 47.5537L42.7961 46.4327L41.4818 47.1007L41.5951 46.5402L42.8943 45.8108L42.9018 47.047C42.781 47.2236 42.6601 47.3925 42.5241 47.5537ZM43.8913 43.1619C43.8762 43.7377 43.778 45.1351 43.2493 46.3713L43.2417 45.1966L42.5695 45.5728L42.9018 44.0372L41.7311 44.2521C41.9652 44.0064 42.1238 43.8529 42.1314 43.8529L42.4108 43.5765L41.5573 43.492C42.5241 43.2463 43.4456 43.1772 43.8913 43.1619ZM39.2083 44.613C39.601 44.2445 40.1147 43.9681 40.6585 43.7607L41.6027 43.8529C41.0966 44.3673 40.0316 45.5037 39.5104 46.4251L39.1856 46.4327L40.0996 44.7973L38.6342 45.2119C38.8004 45.02 38.9892 44.8127 39.2083 44.613ZM38.1357 45.926L38.9892 45.688L37.8487 47.715C37.7883 47.523 37.7581 47.3157 37.7656 47.1161C37.7732 46.7322 37.9016 46.3329 38.1357 45.926ZM45.908 36.8658C45.908 34.0249 47.1769 32.1284 49.2692 32.1284C51.4294 32.1284 52.7285 33.8943 52.7285 36.981C52.7285 39.8986 51.301 41.7414 49.3523 41.7414C47.7359 41.7414 46.6709 40.7816 46.195 39.1539C46.6482 39.0233 47.1165 38.8928 47.5924 38.7853C48.257 39.2767 49.2239 39.1078 50.1 38.0098C50.9989 36.8811 50.7874 34.6391 50.7874 34.6391C50.7874 34.6391 50.2813 35.0537 49.5486 35.2918C48.9519 35.4914 48.325 35.453 47.751 35.9598C46.8899 36.7122 46.8446 37.6797 47.192 38.317C46.8068 38.4091 46.4292 38.5166 46.0666 38.6241C45.9609 38.0866 45.908 37.5031 45.908 36.8658ZM26.0128 23.8283L24.7061 23.1373L24.91 24.8188L24.1623 24.4656L23.8602 22.6689L25.4765 23.0451C25.688 23.2908 25.8693 23.5519 26.0128 23.8283ZM23.6562 24.6268L24.9629 25.2488L25.0913 26.316L23.6336 25.6787L23.3616 26.4389C23.2937 26.3698 23.2332 26.293 23.1653 26.2085L23.6562 24.6268ZM22.8933 25.863C22.5157 25.3563 22.1531 24.765 21.8585 24.2583L22.1305 22.7994L23.6336 23.5519L23.7544 24.2813L23.4221 24.1278L22.8933 25.863ZM21.209 20.7264C21.8434 20.8953 23.6864 21.4481 24.978 22.5537L23.4145 22.1852L23.5656 23.0989L21.8737 22.2543L21.5866 23.7592C21.36 23.3523 21.2241 23.0682 21.2241 23.0605L21.0655 22.7303L20.4914 23.8821C20.6274 22.523 21.0352 21.2331 21.209 20.7264ZM21.3827 27.7135C21.1788 27.414 20.9824 27.0762 20.8011 26.6923C20.5443 26.1394 20.4461 25.4714 20.4385 24.7881L21.0579 23.5442C21.4205 24.2429 22.3268 25.9091 23.2181 26.8074L23.0293 27.3295L21.5489 25.8323L21.3827 27.7135ZM22.9613 29.0418C22.5761 28.9036 22.206 28.6579 21.8737 28.3123L21.987 27.0455L24.0716 29.1493C23.6864 29.203 23.3163 29.1646 22.9613 29.0418ZM25.1366 28.8037C24.9856 28.8805 24.8345 28.942 24.6834 28.9957L23.4523 27.7518L23.9432 26.4005L25.1669 26.938L25.3783 28.6655C25.2953 28.7193 25.2197 28.7654 25.1366 28.8037ZM25.3632 24.1047L26.3301 24.6192C26.9343 26.3084 26.7832 27.5061 25.8693 28.3123L25.3632 24.1047ZM35.7791 51.9072C35.613 52.2374 35.4392 52.5752 35.2731 52.9284C35.0993 52.1146 34.903 51.3083 34.6915 50.5021C34.7972 50.195 34.903 49.8879 35.0163 49.5884C35.3033 50.4023 35.5601 51.1701 35.7791 51.9072ZM35.1824 57.0286C35.0767 56.852 34.9785 56.6677 34.8727 56.4911C34.8199 56.3989 34.7594 56.3068 34.7066 56.2147C34.8123 55.9229 34.9181 55.6311 35.0238 55.347C35.1295 55.9767 35.2353 56.6139 35.3259 57.2666C35.2731 57.1975 35.2277 57.113 35.1824 57.0286ZM33.5358 54.5946C33.77 53.6195 34.0192 52.6904 34.2836 51.7998C34.4649 52.5445 34.631 53.297 34.7821 54.0494C34.5857 54.5178 34.3893 54.9939 34.2081 55.4776C33.989 55.1781 33.77 54.8864 33.5358 54.5946ZM34.7443 48.8053C34.6386 49.0587 34.5404 49.3274 34.4422 49.5884C34.2005 48.7362 33.9361 47.8685 33.6491 46.9779C33.7926 46.9702 33.9286 46.9472 34.0645 46.9241C34.3062 47.5845 34.5328 48.2064 34.7443 48.8053ZM32.4784 42.2098C32.6143 42.3556 32.7352 42.5092 32.856 42.6705L32.6521 43.4306L32.3198 42.8778L31.3001 44.851C31.1792 44.5209 31.0886 44.1447 31.0357 43.7454C31.6324 43.3692 32.0705 42.7779 32.4784 42.2098ZM31.013 43.469C30.9828 43.0851 30.9753 42.6781 31.0055 42.2405C31.0055 42.1867 31.013 42.133 31.0206 42.0792C31.149 41.941 31.285 41.8182 31.4662 41.7414C31.368 42.3326 31.217 42.9085 31.013 43.469ZM32.3575 43.9834L33.8077 46.4174C33.7246 46.4327 33.634 46.4404 33.5434 46.4404C32.8787 46.4788 32.3273 46.2715 31.9043 45.8415C31.791 45.7264 31.6928 45.5958 31.6022 45.4499L32.3575 43.9834ZM35.0389 43.2002L34.7368 43.7454L33.8531 43.231L33.347 44.59L32.9089 43.8529L33.1204 43.0544C33.2412 43.2386 33.347 43.4306 33.4452 43.6225C33.4603 43.3001 33.4829 42.9776 33.4981 42.6628C33.5056 42.4708 33.5207 42.2789 33.6114 42.1176C33.6491 42.0485 33.702 41.9871 33.7624 41.9334L35.0389 43.2002ZM34.0721 41.7184C34.1401 41.68 34.2081 41.6493 34.2685 41.6109C34.6537 41.3882 34.986 41.0657 35.2202 40.6818C35.3637 41.0427 35.4921 41.4727 35.613 41.9948C35.6205 42.0255 35.6281 42.0562 35.6356 42.0869L35.2126 42.8624L34.0721 41.7184ZM35.2957 45.5805C35.0616 45.9029 34.7443 46.141 34.3516 46.2792L33.702 45.1812L34.1325 44.0218L35.6356 44.8971C35.5525 45.1658 35.4392 45.3885 35.2957 45.5805ZM35.7716 44.352L35.2051 44.0218L35.7867 42.9545C35.8471 43.469 35.8396 43.9373 35.7716 44.352ZM36.6024 27.1606C36.3607 27.2912 36.0888 27.3219 35.7867 27.2528V26.961L36.5042 26.4235L36.7459 27.0608C36.7082 27.0992 36.6553 27.1299 36.6024 27.1606ZM37.6599 25.2795C37.6523 25.3025 37.6523 25.3256 37.6448 25.3486C37.6297 25.41 37.6146 25.4791 37.5994 25.5405C37.5692 25.433 37.5541 25.3179 37.5541 25.2027C37.5919 25.2257 37.6297 25.2488 37.6599 25.2795ZM37.0027 24.6499C37.0103 25.0799 37.2142 25.4945 37.539 25.7555C37.5088 25.8553 37.4786 25.9475 37.4408 26.0319L36.8517 24.7804L36.1266 25.3639C36.3003 24.9877 36.7384 24.6883 37.0027 24.6499ZM36.761 25.2181L37.2973 26.3698C37.2142 26.531 37.1236 26.6692 37.0254 26.7921L36.6704 25.8477L35.7867 26.508V26.0089L36.761 25.2181ZM35.0389 24.742C35.2202 24.6576 35.4694 24.5731 35.6054 24.6038C36.1643 24.7267 35.832 24.9647 36.0586 25.4407L35.7867 25.6557V25.1336L35.3184 25.6941L35.3561 24.6806L34.9105 25.0568C34.9483 24.957 34.9936 24.8495 35.0389 24.742ZM34.7897 25.5175L35.0691 25.2872L35.0389 26.0319L34.7897 26.3314C34.7292 26.0934 34.7368 25.817 34.7897 25.5175ZM35.4317 26.1241V27.1222C35.2202 27.0224 35.0616 26.8842 34.9407 26.7076L35.4317 26.1241ZM34.3742 30.8845C34.3667 30.8845 34.3667 30.8922 34.3591 30.8922C34.3591 30.8845 34.3591 30.8845 34.3591 30.8768L34.3742 30.8845ZM30.0613 39.8833C29.7592 40.1213 29.442 40.344 29.1021 40.5283C28.7697 40.7125 28.4072 40.8661 28.0295 40.9198L28.022 40.8968C28.377 40.7893 28.6942 40.582 28.9812 40.3517C29.2683 40.1213 29.5326 39.8603 29.7894 39.5838C30.0387 39.3074 30.2804 39.0233 30.507 38.7239C30.575 38.6394 30.6354 38.555 30.7034 38.4705C30.4843 38.5473 30.2728 38.6164 30.0538 38.6855C29.7894 38.7469 28.2561 39.1615 27.9993 39.2076C27.9011 39.223 27.8029 39.246 27.7047 39.2537C27.6065 39.269 27.5084 39.2767 27.4102 39.2844C27.2138 39.2921 27.0098 39.3074 26.821 39.246V39.2383C27.0174 39.269 27.2062 39.223 27.3951 39.1846C27.4857 39.1615 27.5839 39.1385 27.6745 39.1078C27.7652 39.0848 27.8558 39.0464 27.954 39.0157C28.3165 38.8851 28.6791 38.7316 29.0341 38.5703C29.4269 38.3937 29.8196 38.1941 30.1973 37.9945C29.9103 38.0482 29.6308 38.0636 29.3589 38.0636C28.9586 38.0559 28.5658 38.0021 28.1806 37.9177C27.7954 37.8332 27.4253 37.7257 27.0627 37.5799C26.8814 37.5031 26.7077 37.4263 26.5415 37.3265C26.4585 37.2727 26.3754 37.2267 26.2998 37.1652C26.2243 37.1115 26.111 36.9733 26.1035 36.9579C26.179 37.0117 26.2545 37.0654 26.3376 37.1038C26.4207 37.1499 26.5038 37.1806 26.5944 37.219C26.7681 37.2881 26.9494 37.3341 27.1307 37.3725C27.4932 37.4493 30.1973 37.5491 30.726 37.2881C30.5825 37.1499 29.2003 36.121 28.9284 35.7755C28.6564 35.43 28.3921 35.0691 28.1504 34.7082C27.9162 34.355 27.6821 33.9865 27.531 33.5872L27.5461 33.5795C27.7652 33.9404 28.0522 34.2399 28.3468 34.5393C28.6489 34.8464 28.9661 35.1382 29.2909 35.4223C29.6157 35.6987 29.948 35.9674 30.2879 36.2208C30.575 36.4281 30.8695 36.6278 31.1566 36.789C31.0282 36.5587 30.9073 36.3206 30.794 36.0903C30.5674 35.6296 30.3635 35.1689 30.1671 34.7006C29.9707 34.2322 29.7819 33.7638 29.6157 33.2878C29.4495 32.8117 29.2834 32.3357 29.1776 31.8366C29.2003 31.8904 29.5855 32.7657 29.8045 33.1956C30.0311 33.641 30.2728 34.0786 30.5221 34.5086C30.7713 34.9386 31.0282 35.3685 31.3001 35.7755C31.3756 35.8983 31.4587 36.0135 31.5418 36.1287C31.4965 35.9367 31.4511 35.7448 31.4134 35.5528C31.3152 35.1075 31.2245 34.6622 31.149 34.2168C31.0659 33.7715 30.9904 33.3262 30.9375 32.8732C30.8771 32.4201 30.8242 31.9671 30.8393 31.5141C30.8393 31.5141 31.0886 32.3741 31.2321 32.7964C31.3756 33.2187 31.5342 33.6333 31.7004 34.0479C31.8666 34.4625 32.0403 34.8695 32.214 35.2764C32.3046 35.476 32.3953 35.6834 32.4859 35.883C32.5161 35.9521 32.5539 36.0212 32.5841 36.0903C32.5992 36.0903 32.6143 36.0826 32.637 36.0826C32.6521 35.8523 32.6596 35.6066 32.6521 35.3685C32.6445 35.023 32.6219 34.6775 32.5917 34.332C32.5615 33.9865 32.5237 33.641 32.4784 33.2955C32.4255 32.9499 32.3802 32.6044 32.2744 32.2743C32.2895 32.3127 32.5917 32.9115 32.7125 33.234C32.8334 33.5642 32.9391 33.902 33.0449 34.2399C33.1431 34.5777 33.2412 34.9232 33.3243 35.2764C33.3696 35.4914 33.415 35.7064 33.4527 35.9291C33.4905 35.8292 33.5207 35.7294 33.5434 35.6296C33.6038 35.43 33.6491 35.2227 33.6944 35.0077C33.7851 34.5931 33.8455 34.1631 33.8908 33.7331C33.9361 33.3031 33.9588 32.8732 33.9437 32.4355C33.9286 32.0055 33.8833 31.5679 33.7322 31.1686C33.7624 31.23 34.1099 31.9902 34.1778 32.4125C34.2534 32.8501 34.2911 33.3031 34.3062 33.7485C34.3214 34.1938 34.3138 34.6468 34.2836 35.0921C34.2685 35.3148 34.2458 35.5451 34.2156 35.7678C34.2005 35.8983 34.1778 36.0212 34.1476 36.1517C34.2609 36.0289 34.3667 35.906 34.4649 35.7678C34.631 35.5221 34.7594 35.2534 34.8576 34.9616C34.9558 34.6698 35.0163 34.3627 35.054 34.0479C35.0918 33.7331 35.0993 33.4106 35.1295 33.0881C35.1295 33.0881 35.258 33.7254 35.2806 34.0556C35.3033 34.3857 35.2957 34.7236 35.2504 35.0537C35.2051 35.3916 35.1144 35.7294 34.9785 36.0519C34.8878 36.2669 34.767 36.4742 34.6386 36.6662C34.6461 36.6738 34.6537 36.6815 34.6612 36.6892C34.7443 36.6431 34.8274 36.5894 34.9105 36.5433C35.2202 36.359 35.5223 36.1594 35.8093 35.9444C36.0964 35.7294 36.3834 35.5068 36.6326 35.2534C36.761 35.1228 36.8819 34.9923 36.9801 34.8464C37.0783 34.7006 37.1689 34.5393 37.2067 34.3627C37.1991 34.4011 37.1538 34.7466 37.0783 34.9079C36.9952 35.0768 36.897 35.238 36.7913 35.3916C36.5722 35.6987 36.323 35.9828 36.0661 36.2515C35.8018 36.5203 35.5299 36.7736 35.2504 37.027C35.1673 37.0961 35.0842 37.1729 35.0011 37.242C35.0011 37.242 32.0101 36.8888 31.1414 38.9235C31.081 38.9849 31.013 39.0464 30.9526 39.1001C30.658 39.3919 30.371 39.6453 30.0613 39.8833ZM30.9375 45.3578C31.0961 45.688 31.2925 45.9797 31.5191 46.2178C31.8968 46.6093 32.3575 46.855 32.8862 46.9472C33.3243 48.2678 33.702 49.5347 34.0268 50.7862C33.6944 51.8228 33.3848 52.9131 33.1053 54.0725C32.6748 53.5734 32.214 53.0974 31.723 52.6597C31.149 52.1453 30.5523 51.6692 29.9405 51.2316C29.8272 49.3197 30.0916 47.3464 30.9375 45.3578ZM28.8755 57.8271C28.3543 57.0055 27.9011 56.1456 27.5537 55.2319C27.2515 54.4487 27.0325 53.6271 26.9116 52.7902C27.0023 52.8517 27.1005 52.9208 27.1911 52.9822C27.3422 53.082 27.4857 53.1895 27.6292 53.297C27.7727 53.4045 27.9162 53.5043 28.0597 53.6118C28.7244 54.1185 29.3513 54.656 29.9329 55.2242C30.2351 56.2761 30.6203 57.305 31.0433 58.2878C30.3106 58.1726 29.5855 58.019 28.8755 57.8271ZM31.8817 58.426C31.6098 57.8117 31.3529 57.1898 31.1188 56.5448C31.5191 57.0362 31.8817 57.5507 32.2291 58.0958C32.2065 58.2187 32.1838 58.3338 32.1611 58.4567C32.0629 58.449 31.9723 58.4413 31.8817 58.426ZM36.2097 58.6026C36.0284 57.0362 35.8018 55.562 35.5223 54.1339C35.7036 53.7193 35.8849 53.3123 36.0737 52.9208C36.6251 54.8556 36.9801 56.6216 37.1765 58.5335C36.8592 58.5565 36.5344 58.5795 36.2097 58.6026Z" fill="#F3F1EA"/>
<path d="M36.9727 20.8031C36.9878 20.8876 37.0029 20.972 37.018 21.0642C37.0407 20.949 37.0709 20.8262 37.0935 20.711C37.1388 20.5037 37.1917 20.2964 37.2446 20.0814C37.1842 20.0737 37.1313 20.0507 37.0709 20.02C36.9953 19.9816 36.9198 19.8818 36.8594 19.7359C36.8669 19.7896 36.8669 19.8434 36.8745 19.8894C36.8896 20.1966 36.9274 20.5037 36.9727 20.8031Z" fill="#F3F1EA"/>
<path d="M34.0877 22.5537C34.0724 22.5537 34.0572 22.5537 34.042 22.5614C34.0496 22.5614 34.0648 22.5614 34.0724 22.5614C34.0801 22.5537 34.0877 22.5537 34.0877 22.5537Z" fill="#F3F1EA"/>
<path d="M35.3711 17.9392C35.1445 17.3556 34.9104 16.7337 35.0463 16.1271C34.7593 16.6569 34.714 17.2865 34.7291 17.8931C34.7593 19.1293 35.0615 20.4653 35.9905 21.2638C35.9527 21.164 35.915 21.0565 35.8848 20.9567C35.8017 20.6956 35.7337 20.4346 35.6733 20.1735C35.6128 19.9125 35.56 19.6437 35.5222 19.375C35.4844 19.1062 35.4467 18.8375 35.4769 18.5688C35.4769 18.5688 35.5902 19.0832 35.6733 19.3366C35.7639 19.5823 35.8621 19.828 35.9678 20.0737C36.0736 20.3117 36.1869 20.5497 36.3077 20.7801C36.4135 20.972 36.5192 21.1563 36.6401 21.3252C36.625 21.164 36.625 21.0027 36.6174 20.8415C36.6099 20.5267 36.6174 20.2196 36.625 19.9125C36.6325 19.6284 36.6552 19.3519 36.6778 19.0755C36.5419 18.2079 36.5645 16.9333 36.8591 15.9736C36.7609 15.9045 35.779 17.3249 35.3711 17.9392Z" fill="#F3F1EA"/>
<path d="M35.4172 22.1161C35.4093 22.1161 35.4093 22.124 35.4014 22.124C35.4093 22.124 35.4093 22.124 35.4172 22.1161C35.4172 22.124 35.4172 22.1161 35.4172 22.1161Z" fill="#F3F1EA"/>
<path d="M34.0418 20.0276C33.5584 19.375 33.2789 18.5918 33.0599 17.8087C33.0221 18.1926 32.9844 18.5841 33.0372 18.9681C33.0977 19.352 33.2638 19.7282 33.5735 19.9585C33.0599 19.9432 32.5614 19.7205 32.2064 19.3443C32.2064 19.3443 32.7351 20.4346 33.1354 20.6265C32.1988 20.8108 31.232 20.9874 30.2954 20.7724C31.2245 21.2177 32.1686 21.6708 33.1807 21.855C33.6944 21.9472 34.2231 21.9702 34.7367 21.9241C34.5781 21.8934 34.427 21.855 34.276 21.809C34.2155 21.7936 33.9889 21.7168 33.9285 21.6938C33.8152 21.6477 33.7019 21.6016 33.6113 21.5172C33.7095 21.5863 34.7594 21.7322 35.0011 21.7399C35.2654 21.7475 35.5298 21.7399 35.7866 21.7322C35.6129 21.6861 35.4543 21.6247 35.3107 21.5479C35.0917 21.4327 34.8878 21.3022 34.6989 21.1563C34.5101 21.0104 34.3364 20.8492 34.1702 20.6726C34.0871 20.5805 34.0116 20.496 33.9436 20.3962C33.9134 20.3501 33.8756 20.2964 33.853 20.2426C33.8228 20.1889 33.8077 20.1351 33.785 20.0814C33.785 20.0814 33.853 20.1735 33.8907 20.2196C33.921 20.2657 33.9663 20.304 34.004 20.3501C34.0796 20.4346 34.1702 20.5037 34.2608 20.5805C34.4421 20.7187 34.631 20.8415 34.8349 20.949C35.0313 21.0565 35.2352 21.1486 35.4467 21.2101C35.628 21.2638 35.8168 21.3022 35.9905 21.3022C35.9905 21.3022 35.9905 21.3022 35.9905 21.2945C35.2126 21.187 34.5101 20.6726 34.0418 20.0276Z" fill="#F3F1EA"/>
<path d="M40.6659 22.9146C40.5451 22.5998 40.3638 22.3004 40.1372 22.047C41.0285 22.5768 42.1161 22.7534 43.1283 22.5461C42.5014 22.1698 41.8367 21.8474 41.1569 21.5863C41.6554 21.4711 42.169 21.4481 42.6524 21.2945C43.1358 21.141 43.6117 20.8185 43.7703 20.3194C42.8941 20.6956 41.8971 20.7494 40.9832 20.4807C41.4968 20.3885 42.1464 18.8683 42.4938 18.2079C41.7007 18.6379 40.8019 18.8836 39.903 18.922C40.0843 18.1926 40.7037 17.5783 40.681 16.8259C40.1296 17.2866 38.8305 18.231 38.755 18.2003C38.7172 18.1849 38.3018 17.5783 38.1205 17.3096C38.0676 17.9238 38.1809 18.5534 38.1205 19.1677C38.0827 19.567 37.8712 19.8818 37.6144 20.02C37.5993 20.2733 37.5918 20.5267 37.5842 20.7801C37.5842 20.9183 37.5767 21.0488 37.5767 21.187C37.5767 21.2331 37.5767 21.2792 37.5767 21.3253C37.5842 21.3253 37.5993 21.3329 37.6069 21.3329C37.6749 21.2101 37.7428 21.0796 37.8033 20.9413C37.8863 20.7494 37.9619 20.5574 38.0374 20.3578C38.1129 20.1582 38.1809 19.9585 38.2413 19.7589C38.3018 19.5593 38.3622 19.352 38.3924 19.1447C38.3924 19.1447 38.4075 19.5746 38.3849 19.7896C38.3622 20.0046 38.3395 20.2196 38.3093 20.4346C38.2791 20.6496 38.2413 20.8646 38.196 21.0796C38.1658 21.2101 38.1356 21.3406 38.0978 21.4711C38.1432 21.4251 38.1809 21.379 38.2262 21.3329C38.3093 21.2408 38.3924 21.1333 38.4679 21.0335C38.6266 20.8262 38.7701 20.6112 38.906 20.3808C39.042 20.1582 39.1628 19.9202 39.2686 19.6821C39.3668 19.4441 39.4574 19.1907 39.4801 18.922C39.4801 18.922 39.4801 19.4671 39.4045 19.7282C39.3366 19.9893 39.2384 20.2503 39.1326 20.496C39.0269 20.7494 38.906 20.9874 38.7776 21.2331C38.7096 21.356 38.6417 21.4711 38.5661 21.5863C38.5284 21.6477 38.483 21.7168 38.4302 21.7783C38.5208 21.7399 38.6115 21.7015 38.7021 21.6477C38.8532 21.5556 38.9967 21.4404 39.1251 21.3099C39.2535 21.1794 39.3668 21.0258 39.4725 20.8646C39.5783 20.7033 39.6613 20.5267 39.7595 20.3578C39.7595 20.3578 39.6689 20.7417 39.5934 20.9337C39.5178 21.1179 39.4347 21.3022 39.3215 21.4788C39.2082 21.6554 39.0722 21.8167 38.9136 21.9549C38.8078 22.047 38.6945 22.1315 38.5661 22.2006C38.5661 22.2082 38.5737 22.2082 38.5737 22.2159C38.6341 22.2082 38.687 22.2082 38.7474 22.2006C38.9665 22.1775 39.1779 22.1545 39.397 22.1084C39.6085 22.07 39.8275 22.0163 40.0315 21.9472C40.1372 21.9088 40.2354 21.8704 40.326 21.8167C40.4167 21.7629 40.5904 21.617 40.5904 21.617C40.5375 21.7168 40.4544 21.8013 40.3638 21.8781C40.2732 21.9472 40.175 22.0163 40.0768 22.07C39.8804 22.1852 39.6689 22.2697 39.4574 22.3541C39.2459 22.4309 39.0269 22.5 38.8078 22.5614C38.7399 22.5768 38.6794 22.5998 38.6115 22.6152C38.5888 22.6613 38.5586 22.715 38.5133 22.7841C39.2233 22.5384 40.0088 22.5845 40.6659 22.9146Z" fill="#F3F1EA"/>
<path d="M36.021 21.2945C36.0057 21.2868 35.9981 21.2715 35.9829 21.2638C35.9829 21.2715 35.9905 21.2792 35.9905 21.2945C36.0057 21.2868 36.0134 21.2945 36.021 21.2945Z" fill="#F3F1EA"/>
<path d="M33.959 22.5691C33.9818 22.5691 34.0123 22.5614 34.0427 22.5614C34.0123 22.5614 33.9894 22.5614 33.959 22.5691Z" fill="#F3F1EA"/>
<path d="M62.291 30.6311C62.6687 30.9383 63.0992 31.8136 63.0992 33.3262V35.5835H58.877V33.3338C58.877 31.8366 59.3226 30.9459 59.6852 30.6388V30.6004H55.8481V30.6388C56.2636 30.9459 56.7017 31.8213 56.7017 33.3338V40.5359C56.7017 42.0332 56.2409 42.9238 55.8481 43.231V43.2693H59.6852V43.231C59.3075 42.9238 58.877 42.0485 58.877 40.5359V37.4186H63.0992V40.605C63.0992 42.0255 62.6536 42.9238 62.291 43.231V43.2693H66.1281V43.231C65.7127 42.9238 65.2746 42.0485 65.2746 40.605V33.3338C65.2746 31.8366 65.7353 30.9459 66.1281 30.6388V30.6004H62.291V30.6311Z" fill="#F3F1EA"/>
<path d="M68.8622 40.3286C68.0842 40.3286 67.4497 41.0427 67.4497 41.9333C67.4497 42.7319 67.9407 43.3922 68.6205 43.5227C68.5223 44.1754 68.205 44.9048 67.7443 45.3655V45.4039L68.8999 46.0028C69.7081 45.0353 70.3124 43.7761 70.3124 42.3787C70.3199 41.1886 69.7836 40.3286 68.8622 40.3286Z" fill="#F3F1EA"/>
<path d="M81.0303 30.6004H75.7129V30.6388C76.1585 30.9306 76.5513 31.5525 76.5513 33.3339V40.5359C76.5513 42.0332 76.0905 42.9238 75.6978 43.231V43.2694H79.5877V43.231C79.1722 42.9238 78.7341 42.0485 78.7341 40.5359V37.6336H80.2448C81.0379 37.6336 81.7705 38.1634 81.9745 38.9466H82.0047L82.5108 35.668C82.0349 35.7755 81.272 35.8139 80.1315 35.8139H78.7341V32.4202H80.5092C81.7479 32.4202 82.76 32.8041 83.3341 33.879L83.3643 33.8637L83.0772 30.4546C82.5561 30.5621 81.982 30.6004 81.0303 30.6004Z" fill="#F3F1EA"/>
<path d="M89.4448 41.442H87.8738V33.3338C87.8738 31.8366 88.3345 30.9459 88.7273 30.6388V30.6004H84.8374V30.6388C85.2528 30.9459 85.6909 31.8213 85.6909 33.2647V40.5359C85.6909 42.0332 85.2302 42.9238 84.8374 43.231V43.2693H90.4721C91.2047 43.2693 91.6277 43.2847 92.232 43.4152L92.6474 39.8219L92.6172 39.8065C91.9374 40.8968 90.8271 41.442 89.4448 41.442Z" fill="#F3F1EA"/>
<path d="M98.9919 30.2319C95.3286 30.2319 93.1079 32.95 93.1079 37.0501C93.1079 40.7893 95.2002 43.6302 98.7577 43.6302C102.293 43.6302 104.657 40.8584 104.657 36.7967C104.657 32.8732 102.391 30.2319 98.9919 30.2319ZM98.9163 41.7337C96.6504 41.7337 95.4721 39.8526 95.4721 36.8658C95.4721 34.0249 96.741 32.1284 98.8333 32.1284C100.993 32.1284 102.293 33.8944 102.293 36.981C102.293 39.891 100.865 41.7337 98.9163 41.7337Z" fill="#F3F1EA"/>
<path d="M118.019 30.6311C118.434 31.0688 118.638 31.8904 118.419 32.8885L117.641 36.5356C117.422 37.6106 117.226 38.8544 117.15 40.2518H117.09C116.871 38.9926 116.614 37.9945 115.836 36.2208L114.295 32.758C113.834 31.7214 113.661 31.0227 113.517 30.4776H113.419C113.29 31.0458 113.071 31.7522 112.641 32.7733L110.941 36.766C110.594 37.5875 110.148 38.7546 109.831 40.2442H109.771C109.725 38.8007 109.612 37.9484 109.393 36.9426L108.487 32.8808C108.283 31.9134 108.471 31.0381 108.902 30.6235V30.5851H105.065V30.6235C105.639 30.9843 105.971 31.9748 106.145 32.7196L107.988 40.4131C108.26 41.5648 108.147 42.563 107.625 43.2233V43.2617H111.372V43.2233C111.07 42.7165 111.085 41.8719 111.455 40.9659L112.784 37.7027C113.041 37.0654 113.275 36.2976 113.479 35.3302H113.54C113.638 36.1133 113.94 37.2651 114.287 38.1173L115.443 40.9582C115.821 41.8719 115.806 42.7088 115.541 43.2156V43.254H119.257V43.2156C118.782 42.4862 118.638 41.6493 118.895 40.4054L120.496 32.7273C120.655 31.9595 121.002 30.9767 121.576 30.6158V30.5774H118.056L118.019 30.6311Z" fill="#F3F1EA"/>
<path d="M127.339 41.4803H125.609V37.3802H127.067C127.958 37.3802 128.525 37.7104 128.797 38.5319H128.827L129.288 35.4684C128.57 35.5759 128.132 35.5989 126.81 35.5989H125.602V32.3894H127.694C128.933 32.3894 129.801 32.8424 130.187 33.7408L130.217 33.7254L129.945 30.4622C129.597 30.5544 128.895 30.6081 128.261 30.6081H122.565V30.6465C122.981 30.9536 123.419 31.8289 123.419 33.3415V40.5436C123.419 42.0408 122.958 42.9315 122.565 43.2386V43.277H128.17C129.107 43.277 129.522 43.3154 130.104 43.4229L130.549 39.7988L130.519 39.7835C129.839 40.8814 128.729 41.4803 127.339 41.4803Z" fill="#F3F1EA"/>
<path d="M139.938 40.8047L138.465 38.0482C139.794 37.5568 140.625 36.3744 140.625 34.4395C140.625 32.067 139.152 30.5928 136.607 30.5928H132.098V30.6312C132.513 30.9383 132.951 31.8136 132.951 33.2571V40.5283C132.951 42.0255 132.506 42.9162 132.098 43.2233V43.2617H135.92V43.2233C135.572 42.9162 135.126 42.0409 135.126 40.5974V32.4048L136.237 32.3895C137.604 32.3741 138.367 33.211 138.367 34.5393C138.367 36.1594 137.604 36.7967 136.237 36.7967H135.474L137.936 41.6263C138.284 42.3019 138.541 42.9392 138.744 43.6533L142 42.9776V42.9392C141.237 42.6474 140.535 41.918 139.938 40.8047Z" fill="#F3F1EA"/>
</svg>
