<svg width="53" height="50" viewBox="0 0 53 50" fill="none" xmlns="http://www.w3.org/2000/svg">
<g clip-path="url(#clip0)">
<path d="M25.8984 7.12891C25.127 7.12891 24.3945 7.43164 23.8477 7.97852C23.3008 8.52539 22.998 9.25781 22.998 10.0293V10.127C22.998 13.2715 21.2891 16.0254 18.75 17.5C19.4336 16.6016 19.8437 15.4785 19.8437 14.2578C19.8437 11.2988 17.4316 8.88672 14.4727 8.88672C11.5137 8.88672 9.10156 11.2988 9.10156 14.2578C9.10156 15.4688 9.51172 16.5918 10.1953 17.5C7.65625 16.0254 5.94727 13.2715 5.94727 10.127V10.0293C5.94727 9.25781 5.64453 8.52539 5.09766 7.97852C4.55078 7.43164 3.82812 7.12891 3.04687 7.12891C1.45508 7.12891 0.15625 8.41797 0.15625 10.0195V10.1172C0.15625 15.791 3.47656 20.7031 8.27148 23.0176V50H9.24805V23.4473V22.3926C8.91601 22.2461 8.59375 22.0996 8.27148 21.9238C4.0332 19.6875 1.13281 15.2344 1.13281 10.1172V10.0195C1.13281 8.96484 1.99219 8.10547 3.05664 8.10547C3.57422 8.10547 4.05273 8.30078 4.41406 8.67188C4.77539 9.0332 4.98047 9.52148 4.98047 10.0293V10.127C4.98047 15.3711 9.24805 19.6289 14.4824 19.6289C19.7168 19.6289 23.9844 15.3613 23.9844 10.127V10.0293C23.9844 9.51172 24.1797 9.0332 24.5508 8.67188C24.9121 8.31055 25.3906 8.10547 25.9082 8.10547C26.9629 8.10547 27.8223 8.96484 27.832 10.0195V10.1172C27.832 15.2344 24.9316 19.6875 20.6934 21.9238C20.3711 22.0898 20.0488 22.2461 19.7168 22.3926V23.4473V50H20.6934V23.0176C25.4883 20.7031 28.8086 15.791 28.8086 10.1172V10.0195C28.7891 8.41797 27.4902 7.12891 25.8984 7.12891ZM14.4727 9.85352C16.8945 9.85352 18.8672 11.8262 18.8672 14.248C18.8672 16.6699 16.8945 18.6426 14.4727 18.6426C12.0508 18.6426 10.0781 16.6699 10.0781 14.248C10.0781 11.8262 12.0508 9.85352 14.4727 9.85352Z" fill="#F3F1EA"/>
<path d="M14.9609 38.2812H13.9844V50H14.9609V38.2812Z" fill="#F3F1EA"/>
<path d="M20.1758 32.5586H8.75977V33.5352H20.1758V32.5586Z" fill="#F3F1EA"/>
<path d="M49.6582 22.3438C48.8867 22.3438 48.1543 22.6465 47.6074 23.1934C47.0606 23.7402 46.7578 24.4727 46.7578 25.2441V25.3418C46.7578 28.4863 45.0488 31.2305 42.5098 32.7148C43.1934 31.8164 43.6035 30.6934 43.6035 29.4727C43.6035 26.5137 41.1914 24.1016 38.2324 24.1016C35.2734 24.1016 32.8613 26.5137 32.8613 29.4727C32.8613 30.6836 33.2715 31.8066 33.9551 32.7148C31.416 31.2402 29.707 28.4863 29.707 25.3418V25.2441C29.707 24.4727 29.4043 23.7402 28.8574 23.1934C28.3105 22.6465 27.5879 22.3438 26.8066 22.3438C25.2148 22.3438 23.916 23.6426 23.9062 25.2344V25.332C23.9062 31.0059 27.2266 35.918 32.0215 38.2324V50H32.998V37.6172C32.666 37.4707 32.3438 37.3145 32.0215 37.1484C27.7832 34.9121 24.8828 30.459 24.8828 25.3418V25.2441C24.8828 24.1895 25.7422 23.3301 26.8066 23.3301C27.3242 23.3301 27.8027 23.5254 28.1641 23.8965C28.5254 24.2578 28.7305 24.7461 28.7305 25.2539V25.3516C28.7305 30.5859 32.9981 34.8535 38.2324 34.8535C43.4668 34.8535 47.7344 30.5859 47.7344 25.3516V25.2539C47.7344 24.7363 47.9297 24.2578 48.3008 23.8965C48.6621 23.5352 49.1406 23.3301 49.6582 23.3301C50.7129 23.3301 51.5723 24.1895 51.582 25.2441V25.3418C51.582 30.459 48.6817 34.9121 44.4434 37.1484C44.1211 37.3145 43.7988 37.4707 43.4668 37.6172V50H44.4434V38.2422C49.2383 35.9277 52.5586 31.0156 52.5586 25.3418V25.2441C52.5586 23.6426 51.2598 22.3438 49.6582 22.3438ZM38.2422 33.8672C35.8203 33.8672 33.8477 31.8945 33.8477 29.4727C33.8477 27.0508 35.8203 25.0781 38.2422 25.0781C40.6641 25.0781 42.6367 27.0508 42.6367 29.4727C42.6367 31.8945 40.6641 33.8672 38.2422 33.8672Z" fill="#F3F1EA"/>
<path d="M43.9453 47.7733H32.5293V48.7499H43.9453V47.7733Z" fill="#F3F1EA"/>
<path d="M34.0625 0.419922H33.0859V3.30078H34.0625V0.419922Z" fill="#F3F1EA"/>
<path d="M34.0625 6.86523H33.0859V9.74609H34.0625V6.86523Z" fill="#F3F1EA"/>
<path d="M31.7969 4.58984H28.916V5.56641H31.7969V4.58984Z" fill="#F3F1EA"/>
<path d="M38.2422 4.58984H35.3613V5.56641H38.2422V4.58984Z" fill="#F3F1EA"/>
<path d="M44.0039 9.73633H43.0273V12.6172H44.0039V9.73633Z" fill="#F3F1EA"/>
<path d="M44.0039 16.1816H43.0273V19.0625H44.0039V16.1816Z" fill="#F3F1EA"/>
<path d="M41.7285 13.916H38.8477V14.8926H41.7285V13.916Z" fill="#F3F1EA"/>
<path d="M48.1738 13.916H45.293V14.8926H48.1738V13.916Z" fill="#F3F1EA"/>
</g>
<defs>
<clipPath id="clip0">
<rect width="52.5391" height="50" fill="white"/>
</clipPath>
</defs>
</svg>
